<svg version="1.1" xmlns="http://www.w3.org/2000/svg" xmlns:xlink="http://www.w3.org/1999/xlink" width="511.99988" height="368.02656" viewBox="0,0,511.99988,368.02656"><g transform="translate(15.98113,3.99491)"><g data-paper-data="{&quot;isPaintingLayer&quot;:true}" fill="#ffffff" fill-rule="nonzero" stroke="none" stroke-width="1" stroke-linecap="butt" stroke-linejoin="miter" stroke-miterlimit="10" stroke-dasharray="" stroke-dashoffset="0" style="mix-blend-mode: normal"><path d="M486.39928,130.69634l-38.36485,16.62423v184.70871c0,8.83666 -7.16453,16.00119 -16.00119,16.00119c-8.83666,0 -16.00119,-7.16453 -16.00119,-16.00119v-170.84168l-16.00119,6.93351v99.90341c0,53.836 -70.28522,96.00713 -160.01188,96.00713c-89.72666,0 -160.01188,-42.17113 -160.01188,-96.00713v-99.90341l-86.36841,-37.42578c-12.82795,-5.55741 -12.82495,-23.80577 0,-29.36318l240.01781,-104.00772c4.0593,-1.75913 8.66564,-1.75913 12.72494,0l240.01781,104.00772c12.82695,5.55841 12.82495,23.80677 0,29.36418zM40.24517,116.01325c110.94723,48.07757 86.90845,37.6608 199.77383,86.56943l126.16636,-54.67206l-128.15151,-16.01919c-8.76865,-1.09608 -14.98911,-9.09367 -13.89303,-17.86233c1.09608,-8.76865 9.09267,-14.98211 17.86233,-13.89303l181.9455,22.74369l15.84418,-6.86551l-199.77383,-86.56943zM368.0285,181.99014l-121.64703,52.71391c-4.0673,1.76213 -8.67264,1.75613 -12.72494,0l-121.64703,-52.71391v86.03539c0,15.07612 12.37392,30.59827 33.94952,42.58416c51.53482,28.63112 136.73515,28.54712 188.11996,0c21.5756,-11.98589 33.94952,-27.50804 33.94952,-42.58416z"/></g></g></svg>